<svg aria-hidden="true" style="position: absolute; width: 0; height: 0; overflow: hidden;" version="1.1" xmlns="http://www.w3.org/2000/svg" xmlns:xlink="http://www.w3.org/1999/xlink">
<defs>
<symbol id="icon-antenna_2" viewBox="0 0 32 32">
<path d="M30.773 22.098l-8.443-8.505 0.937-4.615c0.242 0.094 0.499 0.143 0.759 0.145h0.006c0.008 0 0.017 0 0.026 0 1.192 0 2.159-0.967 2.159-2.159s-0.967-2.159-2.159-2.159c-1.192 0-2.159 0.967-2.159 2.159 0 0.26 0.046 0.508 0.13 0.739l-0.005-0.015-4.96 0.605-8.091-8.133c-0.096-0.098-0.229-0.159-0.376-0.16h-0c-0.14 0.001-0.274 0.057-0.373 0.155l-1.513 1.504c-0.097 0.097-0.156 0.23-0.156 0.377s0.060 0.281 0.156 0.377v0l0.814 0.825c-1.143 2.062-1.816 4.522-1.816 7.139 0 4.106 1.656 7.825 4.336 10.526l-0.001-0.001c0.042 0.041 0.091 0.073 0.146 0.098-0.032 0.164-0.051 0.353-0.052 0.546v6.188h-6.4c-1.472 0.001-2.666 1.194-2.667 2.666v1.067c0 0.295 0.239 0.533 0.534 0.533h24.534c0.294 0 0.534-0.239 0.534-0.534v-1.067c-0.002-1.472-1.195-2.665-2.667-2.666h-6.4v-2.742c1.003 0.21 2.024 0.317 3.049 0.32 2.58-0.003 5.005-0.663 7.117-1.822l-0.077 0.039 0.819 0.823c0.099 0.101 0.235 0.159 0.377 0.16 0.14-0.001 0.274-0.056 0.373-0.155l1.512-1.505c0.096-0.097 0.156-0.23 0.156-0.377s-0.060-0.28-0.156-0.377v0zM23.28 6.233c0.193-0.192 0.458-0.31 0.752-0.31 0.589 0 1.067 0.478 1.067 1.066s-0.477 1.066-1.067 1.066c-0 0-0 0-0 0h-0.003c-0.587-0.003-1.061-0.479-1.061-1.066 0-0.296 0.12-0.563 0.315-0.756l0-0h-0.002zM22.024 9.738l-0.599 2.945-1.175-1.182 1.774-1.764zM21.419 8.836l-1.92 1.909-1.485-1.493 3.405-0.415zM24.004 28.8c0.884 0 1.6 0.716 1.6 1.6v0 0.534h-23.466v-0.534c0-0.884 0.716-1.6 1.6-1.6h20.267zM16.538 26.666v1.067h-5.334v-1.067h5.334zM11.204 25.6v-4.053c0-1.294 1.197-2.346 2.666-2.346s2.667 1.053 2.667 2.346v4.053h-5.334zM17.604 23.904v-2.357c0-1.882-1.675-3.413-3.733-3.413-0.018-0-0.038-0-0.059-0-1.353 0-2.54 0.707-3.213 1.771l-0.009 0.016c-2.36-2.482-3.811-5.846-3.811-9.549 0-2.314 0.567-4.496 1.569-6.414l-0.036 0.077 18.602 18.709c-1.823 0.947-3.98 1.502-6.266 1.502-1.079 0-2.128-0.124-3.136-0.357l0.093 0.018zM28.893 23.221l-21.057-21.18 0.755-0.752 7.935 7.98c0.003 0 0.006 0.007 0.009 0.009l13.114 13.191-0.757 0.752z"></path>
<path d="M13.876 20.267h-0.005c-0.001 0-0.002 0-0.002 0-0.884 0-1.6 0.716-1.6 1.6s0.715 1.599 1.597 1.6h0.005c0.001 0 0.002 0 0.002 0 0.884 0 1.6-0.716 1.6-1.6s-0.715-1.599-1.597-1.6h-0zM14.249 22.245c-0.096 0.096-0.229 0.155-0.376 0.155-0.295 0-0.534-0.239-0.534-0.534 0-0.001 0-0.001 0-0.002v0c0.002-0.292 0.238-0.529 0.53-0.53h0c0.293 0.002 0.531 0.24 0.531 0.534 0 0.148-0.060 0.281-0.157 0.378l-0 0h0.005z"></path>
</symbol>
<symbol id="icon-astronaut_2" viewBox="0 0 32 32">
<path d="M32 4.5c-0.066-0.205-0.254-0.351-0.477-0.351-0.008 0-0.016 0-0.024 0.001l0.001-0-1.85-0.25-0.85-1.75c-0.2-0.35-0.8-0.35-1 0l-0.8 1.75-1.9 0.25c-0.276 0-0.5 0.224-0.5 0.5 0 0.163 0.078 0.308 0.199 0.399l0.001 0.001 1.4 1.35-0.35 1.9c-0.062 0.083-0.1 0.187-0.1 0.3 0 0.276 0.224 0.5 0.5 0.5 0.163 0 0.308-0.078 0.399-0.199l0.001-0.001 1.7-0.9 1.7 0.9c0.092 0.122 0.237 0.2 0.4 0.2 0.276 0 0.5-0.224 0.5-0.5 0-0.113-0.038-0.217-0.101-0.301l0.001 0.001-0.35-1.9 1.4-1.35c0.15-0.1 0.2-0.35 0.1-0.5zM29.5 5.85c-0.102 0.092-0.167 0.225-0.167 0.373 0 0.045 0.006 0.089 0.017 0.131l-0.001-0.003 0.2 1.1-1-0.5c-0.072-0.042-0.158-0.067-0.25-0.067s-0.178 0.025-0.252 0.068l0.002-0.001-1 0.5 0.2-1.15c0-0.15 0-0.35-0.15-0.45l-0.8-0.8 1.1-0.15c0.15 0 0.3-0.15 0.4-0.3l0.5-1 0.5 1c0.1 0.15 0.25 0.25 0.4 0.3l1.1 0.15-0.8 0.8zM26.15 20.5h-1.15v1.1h1.1v-1.1zM26.15 22.65h-1.15v1.050h1.1v-1zM27.2 21.6h-1.050v1.050h1.050v-1.050z"></path>
<path d="M25.050 21.6h-1.050v1.050h1.050v-1.050zM22.4 26.4h-1.050v1.050h1.050v-1.050zM22.4 28.5h-1.050v1.1h1.050v-1.1zM23.5 27.5h-1.1v1h1.050v-1zM21.35 27.5h-1.1v1h1.1v-1zM16 24.25h-1.050v1.050h1.050v-1zM16 26.4h-1.050v1.050h1.050v-1.050zM17.050 25.3h-1.050v1.1h1.050v-1.1z"></path>
<path d="M14.95 25.3h-1.1v1.1h1.15v-1.1zM5.85 6.1h-1.050v1.1h1.050v-1.1zM5.85 8.25h-1.050v1.050h1.050v-1zM6.95 7.2h-1.1v1.050h1.15v-1.050zM4.8 7.2h-1.050v1.050h1.050v-1.050z"></path>
<path d="M24.7 14.15c-0.27-0.369-0.675-0.625-1.14-0.699l-0.010-0.001c-0.5-0.050-1 0.050-1.35 0.35l-1.25 1-1.9 1.4-1.35-0.55c2.392-1.133 4.016-3.527 4.016-6.3 0-3.809-3.064-6.902-6.862-6.949l-0.004-0c-3.826 0.052-6.908 3.166-6.908 6.999 0 1.371 0.394 2.65 1.075 3.729l-0.017-0.029h-2.8c-0.023-0.004-0.049-0.006-0.075-0.006s-0.052 0.002-0.078 0.006l0.003-0h-0.050l-3.25 1.6-1.9 0.9-0.050 0.050c-0.409 0.333-0.668 0.836-0.668 1.399 0 0.994 0.806 1.8 1.8 1.8 0.26 0 0.506-0.055 0.729-0.154l-0.011 0.005 1.35-0.7 2.3-1.15h1.35l-5.45 5.35-1.35 1.35c-0.304 0.299-0.492 0.715-0.492 1.175s0.188 0.876 0.491 1.175l0 0c0.299 0.304 0.715 0.492 1.175 0.492s0.876-0.188 1.175-0.491l0-0 1.35-1.3 1.7-1.3 0.9 0.9-3.1 3.1c-0.304 0.299-0.492 0.715-0.492 1.175s0.188 0.876 0.491 1.175l0 0c0.302 0.319 0.728 0.518 1.2 0.518s0.898-0.199 1.199-0.517l0.001-0.001 1.3-1.35 3.15-3.15 5.25-5.65 3.5 0.5c0.009 0.001 0.020 0.001 0.030 0.001 0.080 0 0.156-0.019 0.223-0.052l-0.003 0.001 0.1-0.050 3.2-2.15h0.1l1.2-1.25c0.336-0.327 0.545-0.784 0.545-1.29 0-0.398-0.129-0.767-0.349-1.065l0.003 0.005zM2.15 17.75c-0.2 0.1-0.4 0.15-0.6 0.050-0.294-0.087-0.505-0.355-0.505-0.672 0-0.239 0.12-0.45 0.302-0.576l0.002-0.002 1.3-0.55 0.35 0.9 0.1 0.4-1 0.5zM5.65 15.95l-1.55 0.8-0.3-0.75-0.15-0.5 2-1v1.45zM20.75 9.3c0 0.95-0.25 1.8-0.6 2.6l-4.2-1.9c0-0.6-0.35-1.1-0.8-1.4l1.5-4.85c2.35 0.75 4.1 3 4.1 5.55zM8.95 9.3c0.030-3.236 2.66-5.848 5.9-5.848 0.264 0 0.525 0.017 0.78 0.051l-0.030-0.003-1.5 4.75c-1 0-1.9 0.85-1.9 1.85-0.003 0.036-0.004 0.079-0.004 0.121 0 1.022 0.828 1.85 1.85 1.85 0.72 0 1.343-0.411 1.649-1.011l0.005-0.010 3.85 1.75c-1.089 1.424-2.788 2.334-4.7 2.334-3.235 0-5.862-2.604-5.9-5.83l-0-0.004zM14.9 10.1c0 0.5-0.35 0.8-0.8 0.8-0.5 0-0.8-0.35-0.8-0.8 0-0.4 0.35-0.8 0.8-0.8s0.8 0.4 0.8 0.8zM2.45 25.1c-0.2 0.3-0.6 0.3-0.85 0-0.095-0.106-0.153-0.246-0.153-0.4s0.058-0.294 0.153-0.401l-0 0.001 1-1 0.8 0.9-0.9 0.95zM5.7 28.9c-0.25 0.2-0.65 0.2-0.9 0-0.109-0.109-0.176-0.259-0.176-0.425s0.067-0.316 0.176-0.425l1-1 0.4 0.45 0.45 0.4-1 1zM9.2 25.4l-1.8 1.75-0.4-0.4-0.5-0.45 1.8-1.75 0.1-0.1v-0.050l0.050-0.15v-0.25c-0.025-0.058-0.059-0.108-0.1-0.15l-1.65-1.65h-0.050l-0.1-0.1h-0.5v0.050l-1.85 1.35-0.9-0.9 2.4-2.4 4.35 4.3-0.95 0.9zM16 18.4h-0.050c-0.022-0.003-0.046-0.005-0.072-0.005-0.083 0-0.162 0.020-0.231 0.056l0.003-0.001-0.1 0.1-4.75 5.15-4.3-4.2 2.8-2.8c0.195-0.073 0.331-0.258 0.331-0.475 0-0.28-0.227-0.506-0.506-0.506-0.063 0-0.123 0.011-0.178 0.032l0.004-0.001h-2.25v-1.55h3.15c1.265 1.305 3.034 2.115 4.992 2.115 0.445 0 0.88-0.042 1.301-0.122l-0.043 0.007 0.15 0.050 2.4 1 0.15 0.75 0.2 0.85-3-0.4zM20 18.55l-0.3-1.5 1.5-1.1 0.35 0.5 0.55 0.75-2.1 1.3zM23.75 15.75l-0.75 0.75-1-1.2 0.85-0.65c0.15-0.1 0.35-0.15 0.5-0.15 0.373 0.018 0.668 0.324 0.668 0.699 0 0.223-0.104 0.421-0.266 0.55l-0.001 0.001z"></path>
<path d="M13.6 18.5l-2.15-2.1c-0.092-0.104-0.226-0.169-0.375-0.169s-0.283 0.065-0.375 0.169l-0 0.001-2.15 2.15c-0.104 0.092-0.169 0.226-0.169 0.375s0.065 0.283 0.169 0.375l0.001 0 2.15 2.15c0.092 0.104 0.226 0.169 0.375 0.169s0.283-0.065 0.375-0.169l0-0.001 2.15-2.15c0.104-0.092 0.169-0.226 0.169-0.375s-0.065-0.283-0.169-0.375l-0.001-0zM11.1 20.3l-1.4-1.4 1.4-1.35 1.35 1.35-1.35 1.4zM17.15 5.050l-0.25 1.050c0.1 0 1.75 0.5 1.75 2.15h1.050c0-2-1.65-3-2.5-3.2zM19.7 9.3h-1.050v1.1h1.050v-1.1z"></path>
</symbol>
<symbol id="icon-clock_2" viewBox="0 0 32 32">
<path d="M31.3 15.3c0-0.007 0-0.015 0-0.023 0-8.45-6.85-15.3-15.3-15.3s-15.3 6.85-15.3 15.3c0 6.844 4.494 12.638 10.692 14.594l0.108 0.029c0.15 0 0.25 0 0.35-0.1 0.15-0.050 0.25-0.2 0.3-0.35l3.85-12.25c1.049-0.001 1.899-0.851 1.899-1.9s-0.851-1.9-1.9-1.9c-0.309 0-0.601 0.074-0.859 0.205l0.011-0.005-5.1-5.15c-0.1-0.067-0.224-0.106-0.356-0.106-0.359 0-0.65 0.291-0.65 0.65 0 0.133 0.040 0.256 0.108 0.359l-0.002-0.002 5.1 5.15c-0.113 0.236-0.179 0.512-0.179 0.804 0 0.606 0.283 1.145 0.725 1.493l0.004 0.003-3.7 11.65c-5.375-2.037-9.128-7.142-9.128-13.125 0-7.732 6.268-14 14-14s14 6.268 14 14c0 5.657-3.356 10.531-8.185 12.739l-0.087 0.036-0.4-1.85c-0.070-0.29-0.326-0.502-0.633-0.502-0.159 0-0.305 0.057-0.418 0.152l0.001-0.001-3.85 3.4c-0.129 0.119-0.21 0.289-0.21 0.478 0 0.291 0.191 0.538 0.455 0.62l0.005 0.001 4.85 1.6c0.046 0.012 0.099 0.018 0.154 0.018 0.359 0 0.65-0.291 0.65-0.65 0-0.024-0.001-0.048-0.004-0.071l0 0.003-0.4-1.85c5.539-2.368 9.35-7.77 9.35-14.062 0-0.013-0-0.026-0-0.040v0.002zM16 14.65c0.359 0 0.65 0.291 0.65 0.65s-0.291 0.65-0.65 0.65v0c-0.359 0-0.65-0.291-0.65-0.65s0.291-0.65 0.65-0.65v0zM18.1 29.55l2.2-2 0.6 2.85-2.8-0.85z"></path>
<path d="M15.35 3.2v1.25c0 0.359 0.291 0.65 0.65 0.65s0.65-0.291 0.65-0.65v-1.25c0-0.359-0.291-0.65-0.65-0.65s-0.65 0.291-0.65 0.65v0zM3.9 14.65c-0.359 0-0.65 0.291-0.65 0.65s0.291 0.65 0.65 0.65v0h1.25c0.359 0 0.65-0.291 0.65-0.65s-0.291-0.65-0.65-0.65v0h-1.25zM28.1 15.95c0.359 0 0.65-0.291 0.65-0.65s-0.291-0.65-0.65-0.65v0h-1.25c-0.359 0-0.65 0.291-0.65 0.65s0.291 0.65 0.65 0.65v0h1.25z"></path>
</symbol>
<symbol id="icon-diagram_2" viewBox="0 0 32 32">
<path d="M14.95 15h1v4.75h-1v-4.75zM19.2 17.1h1.050v2.65h-1.050v-2.65zM10.65 18.7h1.1v1.050h-1.1v-1.050zM7.5 18.15h1v1.6h-1v-1.6z"></path>
<path d="M1.6 28.3h25.6c0.85 0 1.6-0.75 1.6-1.6v-2.2c0-0.85-0.75-1.6-1.6-1.6h-0.5v-13.25l3-2.85c0.202 0.099 0.441 0.158 0.692 0.158 0.884 0 1.6-0.716 1.6-1.6s-0.716-1.6-1.6-1.6c-0.884 0-1.6 0.716-1.6 1.6 0 0.252 0.058 0.49 0.162 0.702l-0.004-0.009-2.3 2.15v-1.25c0-0.85-0.7-1.6-1.6-1.6h-21.3c-0 0-0.001 0-0.001 0-0.884 0-1.6 0.716-1.6 1.6 0 0.018 0 0.035 0.001 0.053l-0-0.003v16h-0.55c-0 0-0 0-0.001 0-0.866 0-1.571 0.688-1.599 1.547l-0 0.003v2.15c0 0.85 0.7 1.6 1.6 1.6zM30.4 4.8c0.304 0 0.55 0.246 0.55 0.55s-0.246 0.55-0.55 0.55v0c-0.29 0-0.525-0.235-0.525-0.525s0.235-0.525 0.525-0.525v0zM3.2 7c0-0.3 0.25-0.5 0.5-0.5h21.35c0.3 0 0.5 0.2 0.5 0.5v2.25l-1 1v-2.15c0-0.3-0.25-0.55-0.55-0.55h-19.2c-0.276 0-0.5 0.224-0.5 0.5v0 13.35c0 0.3 0.2 0.5 0.5 0.5h19.2c0.3 0 0.5-0.2 0.5-0.5v-9.7l1.1-1v12.25h-22.4v-15.95zM8 13.9c-0.004-0-0.008-0-0.012-0-0.884 0-1.6 0.716-1.6 1.6s0.716 1.6 1.6 1.6c0.432 0 0.825-0.172 1.113-0.45l-0 0 1.85 0.95c0.2 0.1 0.5 0 0.65-0.15l3.9-4.45 3.85 2.9c0.2 0.2 0.5 0.15 0.7 0l3.35-3.2v8.15h-18.050v-12.35h18.1v2.7l-3.75 3.55-3.9-2.95c-0.088-0.078-0.204-0.126-0.332-0.126-0.174 0-0.328 0.089-0.417 0.224l-0.001 0.002-4 4.5-1.5-0.75v-0.15c0-0.9-0.65-1.6-1.55-1.6zM8.5 15.5c0 0.276-0.224 0.5-0.5 0.5s-0.5-0.224-0.5-0.5v0c0-0.276 0.224-0.5 0.5-0.5s0.5 0.224 0.5 0.5v0zM11.75 24h5.25v0.55c0 0.3-0.25 0.5-0.5 0.5h-4.3c-0.276 0-0.5-0.224-0.5-0.5v0-0.5zM1 24.6c0-0.3 0.25-0.5 0.55-0.5h9.050v0.5c0 0.9 0.75 1.6 1.6 1.6h4.3c0.9 0 1.6-0.7 1.6-1.6v-0.5h9.1c0.3 0 0.5 0.2 0.5 0.5v2.15c0 0.3-0.2 0.5-0.5 0.5h-25.6c-0.276 0-0.5-0.224-0.5-0.5v0-2.25z"></path>
</symbol>
</defs>
</svg>
