<svg aria-hidden="true" style="position: absolute; width: 0; height: 0; overflow: hidden;" version="1.1" xmlns="http://www.w3.org/2000/svg" xmlns:xlink="http://www.w3.org/1999/xlink">
<defs>
<symbol id="icon-facebook_2_d" viewBox="0 0 32 32">
<path d="M21.333 5.333h2.933v-5.067l-4.267-0.267c-4.267 0-7.067 2.667-7.067 7.467v4.533h-4.667v5.733h4.667v14.267h5.6v-14.267h4.533l0.667-5.733h-5.067v-4c0-1.6 0.533-2.667 2.8-2.667z"></path>
</symbol>
<symbol id="icon-instagram_2_d" viewBox="0 0 32 32">
<path d="M32 9.333c0-1.6-0.4-2.8-0.8-3.867s-1.067-2-1.867-2.667c-0.729-0.833-1.617-1.507-2.618-1.979l-0.049-0.021c-1.2-0.4-2.267-0.667-4-0.667-1.278-0.054-2.777-0.084-4.284-0.084-4.505 0-8.946 0.273-13.307 0.803l0.525-0.052c-1.067 0.533-2 1.067-2.933 1.867-0.743 0.779-1.333 1.711-1.715 2.745l-0.018 0.055c-0.4 1.067-0.667 2.267-0.8 4-0.034 1.024-0.054 2.228-0.054 3.436 0 4.805 0.31 9.538 0.912 14.179l-0.058-0.548c0.455 1.043 1.086 1.93 1.863 2.663l0.004 0.004c0.729 0.833 1.617 1.507 2.618 1.979l0.049 0.021c1.067 0.4 2.267 0.667 4 0.667 1.184 0.043 2.574 0.067 3.971 0.067 4.614 0 9.166-0.267 13.641-0.785l-0.545 0.051c2.151-0.844 3.822-2.515 4.648-4.611l0.019-0.055c0.4-1.067 0.667-2.267 0.8-4 0.116-1.952 0.182-4.235 0.182-6.533s-0.066-4.581-0.196-6.847l0.014 0.313zM29.067 22.667c0 1.467-0.267 2.4-0.533 2.933-0.554 1.415-1.652 2.513-3.030 3.054l-0.036 0.013c-0.533 0.133-1.333 0.4-2.933 0.533-1.271 0.051-2.762 0.081-4.26 0.081-4.135 0-8.218-0.223-12.238-0.658l0.498 0.044c-0.533-0.267-1.333-0.667-1.733-1.333-0.533-0.4-0.933-1.067-1.2-1.733-0.267-0.533-0.533-1.333-0.533-2.933-0.051-1.269-0.080-2.759-0.080-4.256 0-4.137 0.223-8.221 0.657-12.242l-0.044 0.498c0.267-0.667 0.667-1.333 1.2-1.733l1.867-1.333c0.533-0.133 1.333-0.4 2.933-0.4 1.268-0.051 2.756-0.080 4.252-0.080 4.138 0 8.224 0.223 12.247 0.657l-0.499-0.044c0.533 0.267 1.333 0.667 1.733 1.2 0.533 0.4 0.933 1.067 1.2 1.733s0.533 1.467 0.533 3.067c0.118 1.933 0.185 4.192 0.185 6.467s-0.067 4.534-0.2 6.776l0.015-0.309z"></path>
<path d="M16 7.733c-4.566 0-8.267 3.701-8.267 8.267s3.701 8.267 8.267 8.267v0c4.566 0 8.267-3.701 8.267-8.267s-3.701-8.267-8.267-8.267v0zM16 21.333c-2.946 0-5.333-2.388-5.333-5.333s2.388-5.333 5.333-5.333v0c2.946 0 5.333 2.388 5.333 5.333s-2.388 5.333-5.333 5.333v0zM26.533 7.467c0 1.068-0.866 1.933-1.933 1.933s-1.933-0.866-1.933-1.933v0c0-1.068 0.866-1.933 1.933-1.933s1.933 0.866 1.933 1.933v0z"></path>
</symbol>
<symbol id="icon-linkedin_2_d" viewBox="0 0 32 32">
<path d="M32 32v-11.733c0-5.733-1.333-10.133-8-10.133-3.2 0-5.333 1.733-6.267 3.467v-2.933h-6.4v21.333h6.667v-10.667c0-2.667 0.533-5.333 4-5.333 3.333 0 3.333 3.067 3.333 5.6v10.4h6.667zM0.533 10.667h6.667v21.333h-6.667v-21.333zM3.867 0c-2.135 0-3.867 1.731-3.867 3.867v0c0.071 2.106 1.76 3.795 3.86 3.867l0.007 0c2.151-0.074 3.867-1.836 3.867-3.998 0-0.001 0-0.002 0-0.002v0c0-2-1.733-3.733-4-3.733z"></path>
</symbol>
<symbol id="icon-twitter_2_d" viewBox="0 0 32 32">
<path d="M32 6.133c-1.2 0.533-2.4 0.8-3.733 0.933 1.333-0.8 2.4-2 2.8-3.6-1.333 0.8-2.667 1.333-4 1.6-1.215-1.266-2.922-2.053-4.812-2.053-3.682 0-6.667 2.985-6.667 6.667 0 0.491 0.053 0.97 0.154 1.431l-0.008-0.044c-5.473-0.359-10.259-3.027-13.437-7.028l-0.029-0.038c-0.554 0.951-0.881 2.094-0.881 3.312 0 2.266 1.131 4.269 2.859 5.473l0.022 0.014c-1.067 0-2.133-0.267-2.933-0.8-0.001 0.049-0.002 0.106-0.002 0.163 0 3.163 2.202 5.811 5.157 6.495l0.045 0.009c-0.441 0.104-0.947 0.163-1.467 0.163s-1.026-0.060-1.512-0.172l0.045 0.009c0.897 2.602 3.289 4.453 6.124 4.533l0.009 0c-2.21 1.727-5.028 2.769-8.090 2.769-0.579 0-1.15-0.037-1.71-0.11l0.066 0.007c2.834 1.826 6.296 2.912 10.011 2.912 10.309 0 18.667-8.357 18.667-18.667 0-0.227-0.004-0.453-0.012-0.678l0.001 0.033c1.333-0.933 2.4-2 3.333-3.333z"></path>
</symbol>
</defs>
</svg>
